<?xml version="1.0" encoding="UTF-8" standalone="no" ?>
<!DOCTYPE svg PUBLIC "-//W3C//DTD SVG 1.1//EN" "http://www.w3.org/Graphics/SVG/1.1/DTD/svg11.dtd">
<svg xmlns="http://www.w3.org/2000/svg" xmlns:xlink="http://www.w3.org/1999/xlink" version="1.1" width="1280" height="1024" viewBox="0 0 1280 1024" xml:space="preserve">
<desc>Created with Fabric.js 4.4.0</desc>
<defs>
</defs>
<g transform="matrix(1 0 0 1 640 512)" id="background-logo"  >
<rect style="stroke: none; stroke-width: 0; stroke-dasharray: none; stroke-linecap: butt; stroke-dashoffset: 0; stroke-linejoin: miter; stroke-miterlimit: 4; fill: rgb(255,255,255); fill-opacity: 0; fill-rule: nonzero; opacity: 1;"  paint-order="stroke"  x="-640" y="-512" rx="0" ry="0" width="1280" height="1024" />
</g>
<g transform="matrix(1.4966544490237101 0 0 1.4966544490237101 196.46499454141383 512)" id="logo-logo"  >
<g style=""  paint-order="stroke"   >
		<g transform="matrix(2.319419469413458 0 0 -2.319419469413458 38.55932899347761 -8.593449134176865)"  >
<linearGradient id="SVGID_1_1020913" gradientUnits="userSpaceOnUse" gradientTransform="matrix(50.581573 0 0 -50.581573 61 82.853928)"  x1="0" y1="0" x2="1" y2="0">
<stop offset="0%" style="stop-color:rgb(26,137,54);stop-opacity: 1"/>
<stop offset="99.631%" style="stop-color:rgb(16,81,32);stop-opacity: 1"/>
<stop offset="100%" style="stop-color:rgb(16,81,32);stop-opacity: 1"/>
</linearGradient>
<path style="stroke: none; stroke-width: 1; stroke-dasharray: none; stroke-linecap: butt; stroke-dashoffset: 0; stroke-linejoin: miter; stroke-miterlimit: 4; fill: url(#SVGID_1_1020913); fill-rule: nonzero; opacity: 1;"  paint-order="stroke"  transform=" translate(-86.291, -82.8535)" d="M 75.12 125.632 C 73.528 122.296 69.418 116.72500000000001 67.131 113.647 L 67.131 113.647 L 68.1 112.919 C 80.987 96.616 103.563 74.575 101.5 55.25 L 101.5 55.25 C 100.146 42.563 91.552 39.494 91.48 39.437 L 91.48 39.437 L 100.19800000000001 43.038 C 106.402 47.998999999999995 110.37800000000001 55.17399999999999 111.58200000000001 63.462999999999994 L 111.58200000000001 63.462999999999994 C 111.42 65.22399999999999 111.12100000000001 67.00099999999999 110.70100000000001 68.79499999999999 L 110.70100000000001 68.79499999999999 C 106.07100000000001 88.62099999999998 86.77000000000001 109.59499999999998 76.21100000000001 125.10699999999999 L 76.21100000000001 125.10699999999999 C 75.94400000000002 125.50299999999999 75.677 125.88999999999999 75.427 126.26999999999998 L 75.427 126.26999999999998 z M 64.375 99.875 C 66.514 97.581 81.802 79.679 81.95 79.485 L 81.95 79.485 C 83.471 77.502 85.003 75.526 86.392 73.448 L 86.392 73.448 C 89.301 69.093 91.167 64.502 91.5 59.25 L 91.5 59.25 C 92.586 42.108 71.625 39.75 61 45.125 L 61 45.125 C 71.938 35.75 98.087 38.411 97.5 58 L 97.5 58 C 97.259 66.026 93.94200000000001 72.842 89.568 79.402 L 89.568 79.402 C 86.479 84.035 72.995 101.343 69 105 L 69 105 z" stroke-linecap="round" />
</g>
		<g transform="matrix(2.319419469413458 0 0 -2.319419469413458 0 0)"  >
<linearGradient id="SVGID_2_1020914" gradientUnits="userSpaceOnUse" gradientTransform="matrix(84.124039 0 0 -84.124039 27.604343 79.148338)"  x1="0" y1="0" x2="1" y2="0">
<stop offset="0%" style="stop-color:rgb(92,224,125);stop-opacity: 1"/>
<stop offset="100%" style="stop-color:rgb(29,150,59);stop-opacity: 1"/>
</linearGradient>
<path style="stroke: none; stroke-width: 1; stroke-dasharray: none; stroke-linecap: butt; stroke-dashoffset: 0; stroke-linejoin: miter; stroke-miterlimit: 4; fill: url(#SVGID_2_1020914); fill-rule: nonzero; opacity: 1;"  paint-order="stroke"  transform=" translate(-69.66643962962912, -79.1485)" d="M 62.573 124.299 C 49.978 106.096 26.185 80.704 27.671 58.421 L 27.671 58.421 C 28.826 41.116 39.014 28.197 53.912 23.147 L 53.912 23.147 C 58.388 21.628999999999998 63.292 20.820999999999998 68.503 20.820999999999998 L 68.503 20.820999999999998 L 69.917 20.820999999999998 C 92.46600000000001 20.820999999999998 110.16 35.921 111.662 58.421 L 111.662 58.421 C 111.88900000000001 61.815 111.525 65.289 110.70100000000001 68.795 L 110.70100000000001 68.795 C 110.733 67.971 110.72500000000001 67.154 110.66900000000001 66.339 L 110.66900000000001 66.339 C 109.473 48.775 93.554 35.916 75.667 35.916 L 75.667 35.916 L 74.641 35.875 C 56.754000000000005 35.875 45.211000000000006 48.775 44.015 66.339 L 44.015 66.339 C 42.618 86.99799999999999 69.513 111.065 76.211 125.107 L 76.211 125.107 C 73.012 129.785 70.62 133.969 69.666 137.476 L 69.666 137.476 C 68.65599999999999 133.768 66.039 129.308 62.57299999999999 124.299" stroke-linecap="round" />
</g>
</g>
</g>
<g transform="matrix(1.9211538461538462 0 0 1.9211538461538462 819.9682709837214 454.7810185809284)" id="text-logo"  >
<g style=""  paint-order="stroke"   >
		<g transform="matrix(1 0 0 1 5.684342e-14 0)" id="text-logo-path-0"  >
<path style="stroke: none; stroke-width: 0; stroke-dasharray: none; stroke-linecap: butt; stroke-dashoffset: 0; stroke-linejoin: miter; stroke-miterlimit: 4; fill: rgb(23,120,47); fill-rule: nonzero; opacity: 1;"  paint-order="stroke"  transform=" translate(-217.275, 33.059999999999995)" d="M 14.92 0 L 4.28 0 Q 3.8 0 3.8 -0.47 L 3.8 -0.47 L 3.99 -65.74 Q 3.99 -66.12 4.37 -66.12 L 4.37 -66.12 L 34.77 -66.12 Q 35.24 -66.12 35.24 -65.74 L 35.24 -65.74 L 35.24 -55.01 Q 35.24 -54.63 34.87 -54.63 L 34.87 -54.63 L 15.39 -54.63 L 15.39 -39.9 L 34.87 -39.9 Q 35.24 -39.9 35.24 -39.42 L 35.24 -39.42 L 35.34 -28.69 Q 35.34 -28.31 34.87 -28.31 L 34.87 -28.31 L 15.39 -28.31 L 15.39 -0.47 Q 15.39 0 14.92 0 L 14.92 0 Z M 60.03 0 L 49.3 0 Q 48.92 0 48.92 -0.47 L 48.92 -0.47 L 49.11 -65.74 Q 49.11 -66.12 49.49 -66.12 L 49.49 -66.12 L 68.68 -66.12 Q 73.81 -66.12 78.13 -63.6 Q 82.45 -61.09 85.02 -56.86 Q 87.58 -52.63 87.58 -47.31 L 87.58 -47.31 Q 87.58 -43.8 86.54 -40.99 Q 85.49 -38.19 84.07 -36.24 Q 82.64 -34.3 81.5 -33.34 L 81.5 -33.34 Q 86.63 -27.64 86.63 -19.95 L 86.63 -19.95 L 86.73 -0.47 Q 86.73 0 86.25 0 L 86.25 0 L 75.52 0 Q 75.14 0 75.14 -0.29 L 75.14 -0.29 L 75.14 -19.95 Q 75.14 -23.37 72.71 -25.89 Q 70.29 -28.41 66.78 -28.41 L 66.78 -28.41 L 60.51 -28.41 L 60.41 -0.47 Q 60.41 0 60.03 0 L 60.03 0 Z M 60.51 -54.72 L 60.51 -39.8 L 68.68 -39.8 Q 71.62 -39.8 73.9 -41.99 Q 76.18 -44.17 76.18 -47.31 L 76.18 -47.31 Q 76.18 -50.35 73.95 -52.54 Q 71.72 -54.72 68.68 -54.72 L 68.68 -54.72 L 60.51 -54.72 Z M 129.94 0 L 99.26 0 Q 98.88 0 98.88 -0.47 L 98.88 -0.47 L 98.97 -65.74 Q 98.97 -66.12 99.35 -66.12 L 99.35 -66.12 L 129.85 -66.12 Q 130.23 -66.12 130.23 -65.64 L 130.23 -65.64 L 130.23 -55.01 Q 130.23 -54.63 129.85 -54.63 L 129.85 -54.63 L 110.37 -54.63 L 110.37 -39.8 L 129.85 -39.8 Q 130.23 -39.8 130.23 -39.42 L 130.23 -39.42 L 130.32 -28.69 Q 130.32 -28.31 129.94 -28.31 L 129.94 -28.31 L 110.37 -28.31 L 110.37 -11.69 L 129.94 -11.69 Q 130.32 -11.69 130.32 -11.21 L 130.32 -11.21 L 130.32 -0.38 Q 130.32 0 129.94 0 L 129.94 0 Z M 174.01 0 L 143.33 0 Q 142.95 0 142.95 -0.47 L 142.95 -0.47 L 143.04 -65.74 Q 143.04 -66.12 143.42 -66.12 L 143.42 -66.12 L 173.92 -66.12 Q 174.3 -66.12 174.3 -65.64 L 174.3 -65.64 L 174.3 -55.01 Q 174.3 -54.63 173.92 -54.63 L 173.92 -54.63 L 154.44 -54.63 L 154.44 -39.8 L 173.92 -39.8 Q 174.3 -39.8 174.3 -39.42 L 174.3 -39.42 L 174.39 -28.69 Q 174.39 -28.31 174.01 -28.31 L 174.01 -28.31 L 154.44 -28.31 L 154.44 -11.69 L 174.01 -11.69 Q 174.39 -11.69 174.39 -11.21 L 174.39 -11.21 L 174.39 -0.38 Q 174.39 0 174.01 0 L 174.01 0 Z M 207.26 0 L 196.52 0 Q 196.14 0 196.14 -0.47 L 196.14 -0.47 L 196.14 -54.63 L 183.79 -54.63 Q 183.32 -54.63 183.32 -55.1 L 183.32 -55.1 L 183.41 -65.74 Q 183.41 -66.12 183.79 -66.12 L 183.79 -66.12 L 219.89 -66.12 Q 220.37 -66.12 220.37 -65.74 L 220.37 -65.74 L 220.37 -55.1 Q 220.37 -54.63 219.99 -54.63 L 219.99 -54.63 L 207.54 -54.63 L 207.64 -0.47 Q 207.64 0 207.26 0 L 207.26 0 Z M 240.31 0 L 229.57 0 Q 229.19 0 229.19 -0.47 L 229.19 -0.47 L 229.29 -65.74 Q 229.29 -66.12 229.76 -66.12 L 229.76 -66.12 L 240.31 -66.12 Q 240.78 -66.12 240.78 -65.74 L 240.78 -65.74 L 240.69 -39.9 L 254.94 -39.9 L 254.94 -65.74 Q 254.94 -66.12 255.32 -66.12 L 255.32 -66.12 L 265.86 -66.12 Q 266.34 -66.12 266.34 -65.74 L 266.34 -65.74 L 266.53 -0.47 Q 266.53 0 266.05 0 L 266.05 0 L 255.41 0 Q 254.94 0 254.94 -0.47 L 254.94 -0.47 L 254.94 -28.41 L 240.69 -28.41 L 240.69 -0.47 Q 240.69 0 240.31 0 L 240.31 0 Z M 289.7 0 L 278.96 0 Q 278.49 0 278.49 -0.47 L 278.49 -0.47 L 278.58 -65.74 Q 278.58 -66.12 278.96 -66.12 L 278.96 -66.12 L 289.6 -66.12 Q 289.98 -66.12 289.98 -65.74 L 289.98 -65.74 L 290.08 -0.47 Q 290.08 0 289.7 0 L 289.7 0 Z M 313.73 0 L 302.99 0 Q 302.61 0 302.61 -0.47 L 302.61 -0.47 L 302.8 -65.74 Q 302.8 -66.12 303.18 -66.12 L 303.18 -66.12 L 322.37 -66.12 Q 327.5 -66.12 331.82 -63.6 Q 336.15 -61.09 338.71 -56.86 Q 341.28 -52.63 341.28 -47.31 L 341.28 -47.31 Q 341.28 -43.8 340.23 -40.99 Q 339.19 -38.19 337.76 -36.24 Q 336.34 -34.3 335.2 -33.34 L 335.2 -33.34 Q 340.33 -27.64 340.33 -19.95 L 340.33 -19.95 L 340.42 -0.47 Q 340.42 0 339.95 0 L 339.95 0 L 329.21 0 Q 328.83 0 328.83 -0.29 L 328.83 -0.29 L 328.83 -19.95 Q 328.83 -23.37 326.41 -25.89 Q 323.99 -28.41 320.47 -28.41 L 320.47 -28.41 L 314.2 -28.41 L 314.11 -0.47 Q 314.11 0 313.73 0 L 313.73 0 Z M 314.2 -54.72 L 314.2 -39.8 L 322.37 -39.8 Q 325.32 -39.8 327.6 -41.99 Q 329.88 -44.17 329.88 -47.31 L 329.88 -47.31 Q 329.88 -50.35 327.64 -52.54 Q 325.41 -54.72 322.37 -54.72 L 322.37 -54.72 L 314.2 -54.72 Z M 368.44 0.95 L 368.44 0.95 Q 363.31 0.95 359.08 -1.66 Q 354.85 -4.28 352.33 -8.6 Q 349.82 -12.92 349.82 -18.14 L 349.82 -18.14 L 349.82 -22.52 Q 349.82 -22.99 350.29 -22.99 L 350.29 -22.99 L 360.93 -22.99 Q 361.31 -22.99 361.31 -22.52 L 361.31 -22.52 L 361.31 -18.14 Q 361.31 -15.01 363.4 -12.78 Q 365.49 -10.54 368.44 -10.54 L 368.44 -10.54 Q 371.38 -10.54 373.47 -12.82 Q 375.56 -15.11 375.56 -18.14 L 375.56 -18.14 Q 375.56 -21.66 371 -24.23 L 371 -24.23 Q 369.48 -25.08 366.25 -26.89 Q 363.02 -28.69 360.17 -30.3 L 360.17 -30.3 Q 354.95 -33.34 352.43 -37.95 Q 349.91 -42.56 349.91 -48.36 L 349.91 -48.36 Q 349.91 -53.67 352.48 -57.9 Q 355.04 -62.13 359.27 -64.6 Q 363.5 -67.07 368.44 -67.07 L 368.44 -67.07 Q 373.47 -67.07 377.7 -64.55 Q 381.93 -62.04 384.44 -57.81 Q 386.96 -53.58 386.96 -48.36 L 386.96 -48.36 L 386.96 -40.56 Q 386.96 -40.19 386.58 -40.19 L 386.58 -40.19 L 375.94 -40.19 Q 375.56 -40.19 375.56 -40.56 L 375.56 -40.56 L 375.47 -48.36 Q 375.47 -51.68 373.38 -53.77 Q 371.29 -55.86 368.44 -55.86 L 368.44 -55.86 Q 365.49 -55.86 363.4 -53.63 Q 361.31 -51.4 361.31 -48.36 L 361.31 -48.36 Q 361.31 -45.22 362.64 -43.13 Q 363.97 -41.04 367.49 -39.14 L 367.49 -39.14 Q 367.96 -38.86 369.34 -38.14 Q 370.72 -37.43 372.33 -36.53 Q 373.95 -35.63 375.23 -34.96 Q 376.51 -34.3 376.8 -34.1 L 376.8 -34.1 Q 381.55 -31.45 384.3 -27.6 Q 387.06 -23.75 387.06 -18.14 L 387.06 -18.14 Q 387.06 -12.73 384.54 -8.41 Q 382.02 -4.08 377.79 -1.57 Q 373.57 0.95 368.44 0.95 Z M 417.64 0 L 406.9 0 Q 406.52 0 406.52 -0.47 L 406.52 -0.47 L 406.52 -54.63 L 394.17 -54.63 Q 393.7 -54.63 393.7 -55.1 L 393.7 -55.1 L 393.79 -65.74 Q 393.79 -66.12 394.17 -66.12 L 394.17 -66.12 L 430.27 -66.12 Q 430.75 -66.12 430.75 -65.74 L 430.75 -65.74 L 430.75 -55.1 Q 430.75 -54.63 430.37 -54.63 L 430.37 -54.63 L 417.92 -54.63 L 418.02 -0.47 Q 418.02 0 417.64 0 L 417.64 0 Z" stroke-linecap="round" />
</g>
</g>
</g>
<g transform="matrix(1.9211538461538462 0 0 1.9211538461538462 820.1599060798756 603.6414904947185)" id="tagline-6b08a9f7-a945-45c4-9469-0499c3eb74bf-logo"  >
<g style=""  paint-order="stroke"   >
		<g transform="matrix(1 0 0 1 0 0)" id="tagline-6b08a9f7-a945-45c4-9469-0499c3eb74bf-logo-path-0"  >
<path style="stroke: none; stroke-width: 0; stroke-dasharray: none; stroke-linecap: butt; stroke-dashoffset: 0; stroke-linejoin: miter; stroke-miterlimit: 4; fill: rgb(23,120,47); fill-rule: nonzero; opacity: 1;"  paint-order="stroke"  transform=" translate(-114.17, 18.24)" d="M 28.21 0 L 4.39 0 L 4.39 -37.16 L 27.64 -37.16 L 27.64 -30.1 L 12.77 -30.1 L 12.77 -22.63 L 25.42 -22.63 L 25.42 -15.62 L 12.77 -15.62 L 12.77 -7.07 L 28.21 -7.07 L 28.21 0 Z M 43.26 0.68 L 43.26 0.68 Q 40.47 0.68 37.51 -0.4 Q 34.54 -1.48 32.43 -3.25 L 32.43 -3.25 L 36.2 -8.49 Q 40.13 -5.53 43.49 -5.53 L 43.49 -5.53 Q 47.08 -5.53 47.08 -7.92 L 47.08 -7.92 Q 47.08 -9.35 45.29 -10.15 Q 43.49 -10.94 41.33 -11.8 L 41.33 -11.8 Q 38.76 -12.77 36.31 -14.71 Q 33.86 -16.64 33.86 -20.12 L 33.86 -20.12 Q 33.86 -24.05 36.82 -26.51 Q 39.79 -28.96 44.69 -28.96 L 44.69 -28.96 Q 47.94 -28.96 50.39 -27.84 Q 52.84 -26.73 54.66 -25.37 L 54.66 -25.37 L 50.9 -20.35 Q 49.36 -21.43 47.88 -22.09 Q 46.4 -22.74 44.92 -22.74 L 44.92 -22.74 Q 41.72 -22.74 41.72 -20.52 L 41.72 -20.52 Q 41.72 -19.15 43.41 -18.44 Q 45.09 -17.73 47.25 -16.93 L 47.25 -16.93 Q 49.93 -15.96 52.41 -14.14 Q 54.89 -12.31 54.89 -8.44 L 54.89 -8.44 Q 54.89 -4.56 51.93 -1.94 Q 48.96 0.68 43.26 0.68 Z M 69.94 0.68 L 69.94 0.68 Q 64.7 0.68 62.44 -2.34 Q 60.19 -5.36 60.19 -10.26 L 60.19 -10.26 L 60.19 -21.72 L 56.32 -21.72 L 56.32 -27.93 L 60.65 -28.27 L 61.62 -35.8 L 68.57 -35.8 L 68.57 -28.27 L 75.35 -28.27 L 75.35 -21.72 L 68.57 -21.72 L 68.57 -10.37 Q 68.57 -5.87 72.22 -5.87 L 72.22 -5.87 Q 72.9 -5.87 73.62 -6.04 Q 74.33 -6.21 74.9 -6.44 L 74.9 -6.44 L 76.21 -0.34 Q 75.07 0 73.53 0.34 Q 71.99 0.68 69.94 0.68 Z M 84.99 0.68 L 84.99 0.68 Q 82.82 0.68 81.37 -0.83 Q 79.91 -2.34 79.91 -4.56 L 79.91 -4.56 Q 79.91 -6.84 81.37 -8.35 Q 82.82 -9.86 84.99 -9.86 L 84.99 -9.86 Q 87.15 -9.86 88.61 -8.35 Q 90.06 -6.84 90.06 -4.56 L 90.06 -4.56 Q 90.06 -2.34 88.61 -0.83 Q 87.15 0.68 84.99 0.68 Z M 132.53 0 L 107.05 0 L 107.05 -4.79 Q 113.94 -11.34 118.36 -16.16 Q 122.78 -20.98 122.78 -24.85 L 122.78 -24.85 Q 122.78 -27.47 121.38 -28.9 Q 119.99 -30.32 117.65 -30.32 L 117.65 -30.32 Q 115.65 -30.32 114.11 -29.18 Q 112.58 -28.04 111.21 -26.62 L 111.21 -26.62 L 106.65 -31.12 Q 109.33 -33.97 112.12 -35.43 Q 114.91 -36.88 118.79 -36.88 L 118.79 -36.88 Q 124.15 -36.88 127.45 -33.72 Q 130.76 -30.55 130.76 -25.37 L 130.76 -25.37 Q 130.76 -20.8 127.17 -16.02 Q 123.58 -11.23 119.19 -6.61 L 119.19 -6.61 Q 120.56 -6.78 122.27 -6.93 Q 123.98 -7.07 125.23 -7.07 L 125.23 -7.07 L 132.53 -7.07 L 132.53 0 Z M 150.08 0.68 L 150.08 0.68 Q 144.27 0.68 140.7 -4.16 Q 137.14 -9.01 137.14 -18.24 L 137.14 -18.24 Q 137.14 -27.47 140.7 -32.18 Q 144.27 -36.88 150.08 -36.88 L 150.08 -36.88 Q 155.9 -36.88 159.46 -32.18 Q 163.02 -27.47 163.02 -18.24 L 163.02 -18.24 Q 163.02 -9.01 159.46 -4.16 Q 155.9 0.68 150.08 0.68 Z M 150.08 -5.81 L 150.08 -5.81 Q 152.25 -5.81 153.67 -8.32 Q 155.1 -10.83 155.1 -18.24 L 155.1 -18.24 Q 155.1 -25.65 153.67 -28.02 Q 152.25 -30.38 150.08 -30.38 L 150.08 -30.38 Q 147.97 -30.38 146.52 -28.02 Q 145.07 -25.65 145.07 -18.24 L 145.07 -18.24 Q 145.07 -10.83 146.52 -8.32 Q 147.97 -5.81 150.08 -5.81 Z M 192.72 0 L 167.24 0 L 167.24 -4.79 Q 174.14 -11.34 178.55 -16.16 Q 182.97 -20.98 182.97 -24.85 L 182.97 -24.85 Q 182.97 -27.47 181.57 -28.9 Q 180.18 -30.32 177.84 -30.32 L 177.84 -30.32 Q 175.85 -30.32 174.31 -29.18 Q 172.77 -28.04 171.4 -26.62 L 171.4 -26.62 L 166.84 -31.12 Q 169.52 -33.97 172.31 -35.43 Q 175.1 -36.88 178.98 -36.88 L 178.98 -36.88 Q 184.34 -36.88 187.64 -33.72 Q 190.95 -30.55 190.95 -25.37 L 190.95 -25.37 Q 190.95 -20.8 187.36 -16.02 Q 183.77 -11.23 179.38 -6.61 L 179.38 -6.61 Q 180.75 -6.78 182.46 -6.93 Q 184.17 -7.07 185.42 -7.07 L 185.42 -7.07 L 192.72 -7.07 L 192.72 0 Z M 209.13 -22.91 L 204.35 -15.05 L 211.98 -15.05 L 211.98 -20.92 Q 211.98 -22.69 212.1 -24.99 Q 212.21 -27.3 212.33 -29.01 L 212.33 -29.01 L 212.1 -29.01 Q 211.41 -27.53 210.67 -25.99 Q 209.93 -24.45 209.13 -22.91 L 209.13 -22.91 Z M 223.95 -15.05 L 223.95 -8.66 L 219.79 -8.66 L 219.79 0 L 211.98 0 L 211.98 -8.66 L 196.31 -8.66 L 196.31 -14.42 L 209.53 -36.2 L 219.79 -36.2 L 219.79 -15.05 L 223.95 -15.05 Z" stroke-linecap="round" />
</g>
</g>
</g>
</svg>